<svg width="915" height="135" viewBox="0 0 915 135" fill="none" xmlns="http://www.w3.org/2000/svg">
<path d="M181.891 0.302649L201.261 0V76.873C206.103 59.6219 226.078 35.7126 226.078 35.7126L257.856 0.302649H281.766L235.763 52.3584L284.187 131.653H261.186L222.446 68.0961C203.077 92.3081 201.564 106.835 201.564 131.653H182.194V0.302649H181.891Z" fill="#404042"/>
<path d="M285.699 103.506C285.699 85.3473 299.016 75.0572 317.478 73.2413L350.466 69.9122C350.164 58.4115 341.992 49.332 327.465 49.332C314.148 49.332 307.793 57.8062 305.977 65.3725L289.331 60.5301C293.568 43.5817 307.49 32.6863 327.465 32.6863C355.611 32.6863 368.625 51.4506 368.625 70.8201V131.653H350.164V101.993C350.164 122.573 337.15 134.074 318.688 134.074C299.319 134.074 285.699 121.363 285.699 103.506ZM322.623 118.639C342.598 118.639 350.466 104.112 350.466 90.4923V85.3473L321.715 88.3738C310.214 89.5844 304.464 95.0321 304.464 103.809C304.464 112.586 312.333 118.639 322.623 118.639Z" fill="#404042"/>
<path d="M379.521 35.1075H397.983V73.5439C398.285 49.0293 412.207 34.1995 433.393 34.1995V54.1744H427.037C407.365 54.1744 398.285 67.491 398.285 83.2287V131.653H379.521V35.1075Z" fill="#404042"/>
<path d="M431.88 82.9261C431.88 52.9638 453.368 32.6863 480.607 32.6863C509.964 32.6863 526.609 55.0823 526.609 80.5049C526.609 84.1367 526.307 87.7685 526.004 90.1897H450.644C453.066 107.138 464.869 117.731 480.909 117.731C493.015 117.731 503.003 112.283 508.451 103.506L522.372 112.586C514.806 125.297 499.976 134.376 480.607 134.376C451.855 134.074 431.88 113.191 431.88 82.9261ZM508.451 74.4519C508.148 60.8327 496.647 49.0293 480.607 49.0293C464.264 49.0293 453.671 59.6221 450.947 74.4519H508.451Z" fill="#404042"/>
<path d="M627.392 74.1494H563.836V131.653H544.163V0.302933H563.836V55.6878H627.392V0.302933H646.762V131.653H627.392V74.1494Z" fill="#404042"/>
<path d="M657.354 82.9261C657.354 52.9638 678.842 32.6863 706.081 32.6863C735.438 32.6863 752.083 55.0823 752.083 80.5049C752.083 84.1367 751.781 87.7685 751.478 90.1897H676.118C678.539 107.138 690.343 117.731 706.383 117.731C718.489 117.731 728.477 112.283 733.924 103.506L747.846 112.586C740.28 125.297 725.45 134.376 706.081 134.376C677.631 134.074 657.354 113.191 657.354 82.9261ZM733.924 74.4519C733.622 60.8327 722.121 49.0293 706.081 49.0293C689.737 49.0293 679.145 59.6221 676.421 74.4519H733.924Z" fill="#404042"/>
<path d="M761.162 35.1075H779.624V73.5439C779.926 49.0293 793.848 34.1995 815.034 34.1995V54.1744H808.678C789.309 54.1744 779.926 67.491 779.926 83.2287V131.653H761.162V35.1075Z" fill="#404042"/>
<path d="M813.219 83.5309C813.219 54.1739 834.707 32.9885 864.064 32.9885C892.816 32.9885 914.909 54.1739 914.909 83.5309C914.909 113.191 892.816 134.073 864.064 134.073C834.707 134.073 813.219 113.191 813.219 83.5309ZM864.064 117.125C882.223 117.125 895.842 103.506 895.842 83.5309C895.842 64.1614 882.223 49.9368 864.064 49.9368C845.905 49.9368 832.286 64.1614 832.286 83.5309C832.286 103.506 845.905 117.125 864.064 117.125Z" fill="#404042"/>
<path d="M74.1491 74.7542C33.2914 74.7542 0 41.4628 0 0.605139H18.159C18.159 31.4754 43.2789 56.5953 74.1491 56.5953C105.019 56.5953 130.139 31.4754 130.139 0.605139H148.298C148.298 41.4628 115.007 74.7542 74.1491 74.7542Z" fill="#404042"/>
<path d="M148.298 85.044H0V103.203H148.298V85.044Z" fill="#404042"/>
<path d="M148.298 113.494H0V131.653H148.298V113.494Z" fill="#404042"/>
</svg>
