<svg width="731" height="134" viewBox="0 0 731 134" fill="none" xmlns="http://www.w3.org/2000/svg">
<path d="M0 0.301802L19.3153 0V76.6576C24.1441 59.4549 44.0631 35.6126 44.0631 35.6126L75.7523 0.301802H99.5946L53.7207 52.2117L102.009 131.284H79.0721L40.4414 67.9054C21.1261 92.0495 19.6171 106.536 19.6171 131.284H0.301809V0.301802H0Z" fill="#FFFFFF"/>
<path d="M103.517 103.216C103.517 85.1081 116.797 74.8468 135.206 73.036L168.103 69.7162C167.801 58.2477 159.652 49.1937 145.166 49.1937C131.887 49.1937 125.549 57.6441 123.738 65.1892L107.139 60.3603C111.364 43.4594 125.247 32.5946 145.166 32.5946C173.233 32.5946 186.211 51.3063 186.211 70.6216V131.284H167.801V101.707C167.801 122.23 154.824 133.698 136.414 133.698C117.098 133.698 103.517 121.022 103.517 103.216ZM140.337 118.306C160.256 118.306 168.103 103.82 168.103 90.2387V85.1081L139.432 88.1261C127.963 89.3333 122.229 94.7657 122.229 103.518C122.229 112.27 130.076 118.306 140.337 118.306Z" fill="#FFFFFF"/>
<path d="M197.077 35.0094H215.486V73.3383C215.788 48.8923 229.671 34.104 250.797 34.104V54.0229H244.459C224.842 54.0229 215.788 67.3022 215.788 82.9959V131.284H197.077V35.0094Z" fill="#FFFFFF"/>
<path d="M249.289 82.6937C249.289 52.8153 270.717 32.5946 297.879 32.5946C327.154 32.5946 343.753 54.9279 343.753 80.2793C343.753 83.9009 343.451 87.5225 343.149 89.9369H268C270.415 106.838 282.185 117.401 298.181 117.401C310.253 117.401 320.212 111.968 325.644 103.216L339.527 112.27C331.982 124.946 317.194 134 297.879 134C269.208 133.698 249.289 112.874 249.289 82.6937ZM325.644 74.2432C325.343 60.6621 313.874 48.8919 297.879 48.8919C281.581 48.8919 271.018 59.4549 268.302 74.2432H325.644Z" fill="#FFFFFF"/>
<path d="M444.253 73.9419H380.874V131.284H361.257V0.302316H380.874V55.532H444.253V0.302316H463.568V131.284H444.253V73.9419Z" fill="#FFFFFF"/>
<path d="M474.13 82.6937C474.13 52.8153 495.558 32.5946 522.721 32.5946C551.995 32.5946 568.594 54.9279 568.594 80.2793C568.594 83.9009 568.293 87.5225 567.991 89.9369H492.842C495.257 106.838 507.027 117.401 523.022 117.401C535.094 117.401 545.054 111.968 550.486 103.216L564.369 112.27C556.824 124.946 542.036 134 522.721 134C494.351 133.698 474.13 112.874 474.13 82.6937ZM550.486 74.2432C550.184 60.6621 538.716 48.8919 522.721 48.8919C506.423 48.8919 495.86 59.4549 493.144 74.2432H550.486Z" fill="#FFFFFF"/>
<path d="M577.648 35.0094H596.058V73.3383C596.359 48.8923 610.242 34.104 631.368 34.104V54.0229H625.031C605.715 54.0229 596.359 67.3022 596.359 82.9959V131.284H577.648V35.0094Z" fill="#FFFFFF"/>
<path d="M629.559 83.2967C629.559 54.0219 650.987 32.8958 680.262 32.8958C708.933 32.8958 730.964 54.0219 730.964 83.2967C730.964 112.873 708.933 133.698 680.262 133.698C650.987 133.698 629.559 112.873 629.559 83.2967ZM680.262 116.797C698.37 116.797 711.951 103.216 711.951 83.2967C711.951 63.9814 698.37 49.7967 680.262 49.7967C662.154 49.7967 648.573 63.9814 648.573 83.2967C648.573 103.216 662.154 116.797 680.262 116.797Z" fill="#FFFFFF"/>
</svg>
