<?xml version="1.0" encoding="utf-8"?>
<!-- Generator: Adobe Illustrator 23.0.1, SVG Export Plug-In . SVG Version: 6.00 Build 0)  -->
<svg version="1.1" id="Layer_1" xmlns="http://www.w3.org/2000/svg" xmlns:xlink="http://www.w3.org/1999/xlink" x="0px" y="0px"
	 viewBox="0 0 816.009 250" enable-background="new 0 0 816.009 250" xml:space="preserve">
<g>
	<g>
		<path fill="#000F9F" d="M154.064,0C85.019,0,29.048,55.964,29.048,124.991C29.048,194.03,85.019,250,154.064,250
			c69.033,0,124.997-55.97,124.997-125.009C279.061,55.964,223.096,0,154.064,0 M234.733,124.991
			c0,44.537-36.133,80.658-80.67,80.658c-44.549,0-80.651-36.121-80.651-80.658c0-44.531,36.102-80.645,80.651-80.645
			C198.6,44.346,234.733,80.46,234.733,124.991"/>
		<rect y="99.754" fill="#000F9F" width="307.667" height="50.565"/>
	</g>
	<g>
		<polygon fill="#000F9F" points="379.412,70.606 379.412,110.305 367.646,110.305 367.646,70.606 354.096,70.606 354.096,60.184 
			392.937,60.184 392.937,70.606 		"/>
		<path fill="#000F9F" d="M410.437,69.578v11.785h4.072c2.147,0.012,3.887-0.543,5.158-1.734c1.29-1.172,1.919-2.628,1.919-4.375
			c-0.018-1.61-0.611-2.949-1.802-4.048c-1.179-1.08-2.777-1.629-4.831-1.629H410.437z M425.11,110.307l-12.39-18.949h-2.283v18.949
			h-11.767V60.186h17.048c5.603,0,9.94,1.364,13.019,4.085c3.098,2.703,4.621,6.417,4.621,11.143c0,3.159-0.784,5.874-2.357,8.194
			c-1.58,2.326-3.856,4.054-6.812,5.263l14.284,21.435H425.11z"/>
		<path fill="#000F9F" d="M464.873,73.946l-5.59,17.092h11.273L464.873,73.946z M476.936,110.307l-2.999-9.101h-17.869l-2.931,9.101
			h-12.76l18.474-50.121h11.933l19.035,50.121H476.936z"/>
		<polygon fill="#000F9F" points="528.847,110.307 506.85,79.271 506.85,110.307 495.059,110.307 495.059,60.186 506.912,60.186 
			529.273,91.581 529.273,60.186 541.033,60.186 541.033,110.307 		"/>
		<path fill="#000F9F" d="M547.363,100.36l8.854-5.325c1.758,4.06,4.529,6.102,8.354,6.102c2.03,0,3.659-0.463,4.856-1.363
			c1.191-0.913,1.795-2.117,1.82-3.591c0-1.296-0.463-2.425-1.388-3.363c-0.938-0.932-3.474-2.351-7.627-4.239
			c-4.844-2.147-8.151-4.362-9.916-6.67c-1.765-2.283-2.641-5.066-2.641-8.373c0-4.029,1.567-7.435,4.689-10.187
			c3.104-2.777,7.071-4.153,11.872-4.153c6.96,0,12.001,2.727,15.142,8.194l-8.182,5.269c-1.536-2.622-3.875-3.924-6.96-3.924
			c-1.561,0-2.851,0.383-3.826,1.197c-0.975,0.777-1.456,1.789-1.456,3.024c0,1.246,0.494,2.301,1.53,3.184
			c1.024,0.876,3.258,2.117,6.676,3.708c5.09,2.357,8.675,4.763,10.749,7.133c2.079,2.388,3.128,5.387,3.128,8.978
			c0,4.43-1.808,8.114-5.362,10.965c-3.573,2.881-7.984,4.313-13.241,4.313C556.742,111.238,551.053,107.629,547.363,100.36"/>
		<path fill="#000F9F" d="M601.432,69.809v14.475h3.727c2.832,0.018,4.973-0.598,6.423-1.851c1.45-1.259,2.178-3.042,2.178-5.343
			c0-2.376-0.728-4.171-2.178-5.424c-1.45-1.247-3.591-1.857-6.423-1.857H601.432z M601.432,93.904v16.407h-11.767V60.19h16.758
			c6.041,0,10.755,1.499,14.111,4.523c3.375,2.999,5.06,7.071,5.06,12.211c0,5.239-1.795,9.354-5.362,12.421
			c-3.573,3.054-8.324,4.572-14.278,4.56H601.432z"/>
		<path fill="#000F9F" d="M657.014,100.684c4.257,0,7.799-1.469,10.662-4.43c2.857-2.931,4.27-6.627,4.27-11.032
			c0-4.406-1.413-8.077-4.27-11.014c-2.863-2.949-6.405-4.393-10.662-4.393c-4.264,0-7.812,1.469-10.644,4.424
			c-2.826,2.962-4.257,6.621-4.257,10.983s1.431,8.052,4.276,11.014C649.245,99.209,652.775,100.684,657.014,100.684
			 M657.014,111.235c-7.596,0-13.914-2.499-19.004-7.509c-5.109-5.017-7.657-11.187-7.657-18.505
			c-0.018-7.318,2.511-13.482,7.633-18.492c5.115-4.998,11.433-7.509,19.029-7.534c7.571,0,13.938,2.499,19.072,7.491
			c5.115,4.985,7.676,11.174,7.676,18.535c-0.019,7.386-2.579,13.556-7.676,18.548C670.971,108.736,664.628,111.235,657.014,111.235
			"/>
		<path fill="#000F9F" d="M702.223,69.578v11.785h4.048c2.159,0.012,3.862-0.543,5.158-1.734c1.265-1.172,1.944-2.628,1.944-4.375
			c-0.056-1.61-0.642-2.949-1.802-4.048c-1.185-1.08-2.801-1.629-4.862-1.629H702.223z M716.884,110.307l-12.415-18.949h-2.246
			v18.949H690.45V60.186h17.036c5.603,0,9.959,1.364,13.025,4.085c3.085,2.703,4.628,6.417,4.628,11.143
			c0,3.159-0.796,5.874-2.363,8.194c-1.586,2.326-3.856,4.054-6.812,5.263l14.278,21.435H716.884z"/>
		<polygon fill="#000F9F" points="757.821,70.606 757.821,110.305 746.03,110.305 746.03,70.606 732.505,70.606 732.505,60.184 
			771.353,60.184 771.353,70.606 		"/>
		<polygon fill="#000F9F" points="365.787,149.799 365.787,158.363 381.595,158.363 381.595,168.501 365.787,168.501 
			365.787,189.862 354.027,189.862 354.027,139.747 385.711,139.747 385.711,149.799 		"/>
		<path fill="#000F9F" d="M416.418,180.244c4.257,0,7.805-1.475,10.656-4.436c2.826-2.937,4.27-6.633,4.27-11.051
			c0-4.406-1.444-8.058-4.27-10.995c-2.851-2.937-6.399-4.399-10.656-4.399c-4.251,0-7.805,1.481-10.65,4.43
			c-2.838,2.956-4.251,6.621-4.251,10.965c0,4.381,1.438,8.046,4.276,11.008C408.656,178.745,412.179,180.244,416.418,180.244
			 M416.418,190.795c-7.577,0-13.926-2.493-19.017-7.521c-5.097-5.01-7.657-11.18-7.657-18.517
			c-0.018-7.306,2.518-13.464,7.633-18.48c5.115-4.998,11.464-7.509,19.042-7.534c7.571,0,13.926,2.499,19.047,7.491
			c5.134,4.979,7.688,11.181,7.688,18.523c-0.025,7.404-2.598,13.568-7.688,18.572C430.362,188.302,424.013,190.795,416.418,190.795
			"/>
		<path fill="#000F9F" d="M461.618,149.129v11.767h4.054c2.153,0.025,3.875-0.543,5.152-1.703c1.308-1.185,1.925-2.641,1.925-4.387
			c-0.025-1.586-0.617-2.955-1.783-4.048c-1.185-1.08-2.808-1.629-4.85-1.629H461.618z M476.291,189.859l-12.427-18.943h-2.246
			v18.943h-11.791V139.75H466.9c5.584,0,9.922,1.357,13.019,4.054c3.079,2.727,4.621,6.436,4.621,11.162
			c0,3.165-0.802,5.886-2.357,8.194c-1.586,2.326-3.869,4.06-6.818,5.263l14.266,21.435H476.291z"/>
		<polygon fill="#000F9F" points="510.628,189.859 510.628,139.75 522.394,139.75 522.394,179.388 541.652,179.388 541.652,189.859 
					"/>
		<path fill="#000F9F" d="M572.368,180.244c4.257,0,7.799-1.475,10.644-4.436c2.857-2.937,4.276-6.633,4.276-11.051
			c0-4.406-1.419-8.058-4.276-10.995c-2.844-2.937-6.386-4.399-10.644-4.399c-4.251,0-7.818,1.481-10.65,4.43
			c-2.838,2.956-4.245,6.621-4.245,10.965c0,4.381,1.431,8.046,4.263,11.008C564.588,178.745,568.136,180.244,572.368,180.244
			 M572.368,190.795c-7.589,0-13.926-2.493-19.023-7.521c-5.115-5.01-7.651-11.18-7.651-18.517
			c-0.018-7.306,2.511-13.464,7.633-18.48c5.115-4.998,11.452-7.509,19.042-7.534c7.577,0,13.932,2.499,19.06,7.491
			c5.109,4.979,7.663,11.181,7.663,18.523c-0.019,7.404-2.592,13.568-7.663,18.572C586.313,188.302,579.958,190.795,572.368,190.795
			"/>
		<polygon fill="#000F9F" points="639.482,189.859 617.485,158.798 617.485,189.859 605.718,189.859 605.718,139.75 617.565,139.75 
			639.901,171.132 639.901,139.75 651.668,139.75 651.668,189.859 		"/>
		<path fill="#000F9F" d="M671.735,149.505v30.586h3.227c5.455,0,9.712-1.345,12.772-4.042c3.079-2.672,4.621-6.417,4.621-11.211
			c-0.025-4.936-1.579-8.706-4.621-11.372c-3.079-2.628-7.318-3.961-12.772-3.961H671.735z M659.956,189.859V139.75h16.141
			c8.533,0,15.333,2.209,20.411,6.658c5.078,4.43,7.614,10.465,7.614,18.054c0,8.077-2.536,14.327-7.639,18.745
			c-5.072,4.43-12.125,6.651-21.121,6.651H659.956z"/>
		<path fill="#000F9F" d="M735.81,180.244c4.257,0,7.812-1.475,10.674-4.436c2.838-2.937,4.276-6.633,4.276-11.051
			c0-4.406-1.438-8.058-4.276-10.995c-2.863-2.937-6.417-4.399-10.674-4.399c-4.251,0-7.793,1.481-10.638,4.43
			c-2.832,2.956-4.257,6.621-4.257,10.965c0,4.381,1.425,8.046,4.282,11.008C728.042,178.745,731.571,180.244,735.81,180.244
			 M735.81,190.795c-7.577,0-13.914-2.493-19.023-7.521c-5.097-5.01-7.633-11.18-7.633-18.517
			c-0.043-7.306,2.517-13.464,7.614-18.48c5.128-4.998,11.464-7.509,19.042-7.534c7.589,0,13.951,2.499,19.06,7.491
			c5.115,4.979,7.7,11.181,7.7,18.523c-0.031,7.404-2.604,13.568-7.7,18.572C749.773,188.302,743.424,190.795,735.81,190.795"/>
		<polygon fill="#000F9F" points="803.823,189.859 781.826,158.798 781.826,189.859 770.047,189.859 770.047,139.75 781.906,139.75 
			804.236,171.132 804.236,139.75 816.009,139.75 816.009,189.859 		"/>
	</g>
</g>
</svg>
